G04 #@! TF.FileFunction,Legend,Top*
%FSLAX46Y46*%
G04 Gerber Fmt 4.6, Leading zero omitted, Abs format (unit mm)*
G04 Created by KiCad (PCBNEW 4.0.1-stable) date Tuesday, March 29, 2016 'AMt' 12:48:36 AM*
%MOMM*%
G01*
G04 APERTURE LIST*
%ADD10C,0.100000*%
%ADD11C,0.150000*%
G04 APERTURE END LIST*
D10*
D11*
X136779000Y-114046000D02*
X135382000Y-114046000D01*
X137033000Y-114173000D02*
X135255000Y-114173000D01*
X137414000Y-114300000D02*
X134874000Y-114300000D01*
X134747000Y-114427000D02*
X137541000Y-114427000D01*
X137668000Y-114554000D02*
X134620000Y-114554000D01*
X134493000Y-114681000D02*
X137795000Y-114681000D01*
X137922000Y-114808000D02*
X134366000Y-114808000D01*
X138811000Y-113665000D02*
X138811000Y-118237000D01*
X138811000Y-118237000D02*
X138049000Y-118999000D01*
X138049000Y-118999000D02*
X134239000Y-118999000D01*
X134239000Y-118999000D02*
X133477000Y-118237000D01*
X133477000Y-118237000D02*
X133477000Y-113665000D01*
X133477000Y-113665000D02*
X138811000Y-113665000D01*
X136144000Y-118491000D02*
X136144000Y-117729000D01*
X136525000Y-118110000D02*
X135763000Y-118110000D01*
X138557000Y-116332000D02*
G75*
G03X138557000Y-116332000I-2413000J0D01*
G01*
X137676000Y-101942000D02*
X138676000Y-101942000D01*
X138676000Y-100242000D02*
X137676000Y-100242000D01*
X126484000Y-107862000D02*
X125484000Y-107862000D01*
X125484000Y-109562000D02*
X126484000Y-109562000D01*
X128743215Y-119793326D02*
G75*
G03X126593598Y-117665081I678811J2835352D01*
G01*
X128714919Y-119786402D02*
X126593598Y-117665081D01*
X131939962Y-116957974D02*
G75*
G03X131939962Y-116957974I-2517936J0D01*
G01*
X146398674Y-116551215D02*
G75*
G03X148526919Y-114401598I2835352J-678811D01*
G01*
X146405598Y-116522919D02*
X148526919Y-114401598D01*
X151751962Y-117230026D02*
G75*
G03X151751962Y-117230026I-2517936J0D01*
G01*
X139794674Y-116551215D02*
G75*
G03X141922919Y-114401598I2835352J-678811D01*
G01*
X139801598Y-116522919D02*
X141922919Y-114401598D01*
X145147962Y-117230026D02*
G75*
G03X145147962Y-117230026I-2517936J0D01*
G01*
X127838000Y-104660000D02*
X125138000Y-104660000D01*
X127838000Y-106160000D02*
X125138000Y-106160000D01*
X126338000Y-105260000D02*
X126338000Y-105510000D01*
X126338000Y-105510000D02*
X126488000Y-105360000D01*
X126588000Y-105760000D02*
X126588000Y-105060000D01*
X126238000Y-105410000D02*
X125888000Y-105410000D01*
X126588000Y-105410000D02*
X126238000Y-105760000D01*
X126238000Y-105760000D02*
X126238000Y-105060000D01*
X126238000Y-105060000D02*
X126588000Y-105410000D01*
X134069000Y-105121000D02*
X134069000Y-105266000D01*
X138219000Y-105121000D02*
X138219000Y-105266000D01*
X138219000Y-110271000D02*
X138219000Y-110126000D01*
X134069000Y-110271000D02*
X134069000Y-110126000D01*
X134069000Y-105121000D02*
X138219000Y-105121000D01*
X134069000Y-110271000D02*
X138219000Y-110271000D01*
X134069000Y-105266000D02*
X132669000Y-105266000D01*
X140882000Y-98052000D02*
X140882000Y-99052000D01*
X142582000Y-99052000D02*
X142582000Y-98052000D01*
X146050000Y-109474000D02*
X151130000Y-109474000D01*
X143230000Y-109754000D02*
X143230000Y-108204000D01*
X143510000Y-106934000D02*
X146050000Y-106934000D01*
X146050000Y-106934000D02*
X146050000Y-109474000D01*
X151130000Y-109474000D02*
X151130000Y-104394000D01*
X151130000Y-104394000D02*
X146050000Y-104394000D01*
X143230000Y-109754000D02*
X144780000Y-109754000D01*
X143510000Y-104394000D02*
X143510000Y-106934000D01*
X146050000Y-104394000D02*
X143510000Y-104394000D01*
X133858000Y-98806000D02*
X138938000Y-98806000D01*
X138938000Y-98806000D02*
X138938000Y-96266000D01*
X138938000Y-96266000D02*
X133858000Y-96266000D01*
X131038000Y-95986000D02*
X132588000Y-95986000D01*
X133858000Y-96266000D02*
X133858000Y-98806000D01*
X132588000Y-99086000D02*
X131038000Y-99086000D01*
X131038000Y-99086000D02*
X131038000Y-95986000D01*
X126584000Y-112127000D02*
X125384000Y-112127000D01*
X125384000Y-110377000D02*
X126584000Y-110377000D01*
X150968000Y-113651000D02*
X149768000Y-113651000D01*
X149768000Y-111901000D02*
X150968000Y-111901000D01*
X145380000Y-113651000D02*
X144180000Y-113651000D01*
X144180000Y-111901000D02*
X145380000Y-111901000D01*
X129448000Y-102249000D02*
X130648000Y-102249000D01*
X130648000Y-103999000D02*
X129448000Y-103999000D01*
X132221000Y-101946000D02*
X132221000Y-100746000D01*
X133971000Y-100746000D02*
X133971000Y-101946000D01*
X146396000Y-98411000D02*
X145196000Y-98411000D01*
X145196000Y-96661000D02*
X146396000Y-96661000D01*
X140057143Y-113450666D02*
X140104762Y-113498285D01*
X140152381Y-113641142D01*
X140152381Y-113736380D01*
X140104762Y-113879238D01*
X140009524Y-113974476D01*
X139914286Y-114022095D01*
X139723810Y-114069714D01*
X139580952Y-114069714D01*
X139390476Y-114022095D01*
X139295238Y-113974476D01*
X139200000Y-113879238D01*
X139152381Y-113736380D01*
X139152381Y-113641142D01*
X139200000Y-113498285D01*
X139247619Y-113450666D01*
X140152381Y-112498285D02*
X140152381Y-113069714D01*
X140152381Y-112784000D02*
X139152381Y-112784000D01*
X139295238Y-112879238D01*
X139390476Y-112974476D01*
X139438095Y-113069714D01*
X138009334Y-103549143D02*
X137961715Y-103596762D01*
X137818858Y-103644381D01*
X137723620Y-103644381D01*
X137580762Y-103596762D01*
X137485524Y-103501524D01*
X137437905Y-103406286D01*
X137390286Y-103215810D01*
X137390286Y-103072952D01*
X137437905Y-102882476D01*
X137485524Y-102787238D01*
X137580762Y-102692000D01*
X137723620Y-102644381D01*
X137818858Y-102644381D01*
X137961715Y-102692000D01*
X138009334Y-102739619D01*
X138390286Y-102739619D02*
X138437905Y-102692000D01*
X138533143Y-102644381D01*
X138771239Y-102644381D01*
X138866477Y-102692000D01*
X138914096Y-102739619D01*
X138961715Y-102834857D01*
X138961715Y-102930095D01*
X138914096Y-103072952D01*
X138342667Y-103644381D01*
X138961715Y-103644381D01*
X128865334Y-109069143D02*
X128817715Y-109116762D01*
X128674858Y-109164381D01*
X128579620Y-109164381D01*
X128436762Y-109116762D01*
X128341524Y-109021524D01*
X128293905Y-108926286D01*
X128246286Y-108735810D01*
X128246286Y-108592952D01*
X128293905Y-108402476D01*
X128341524Y-108307238D01*
X128436762Y-108212000D01*
X128579620Y-108164381D01*
X128674858Y-108164381D01*
X128817715Y-108212000D01*
X128865334Y-108259619D01*
X129198667Y-108164381D02*
X129817715Y-108164381D01*
X129484381Y-108545333D01*
X129627239Y-108545333D01*
X129722477Y-108592952D01*
X129770096Y-108640571D01*
X129817715Y-108735810D01*
X129817715Y-108973905D01*
X129770096Y-109069143D01*
X129722477Y-109116762D01*
X129627239Y-109164381D01*
X129341524Y-109164381D01*
X129246286Y-109116762D01*
X129198667Y-109069143D01*
X130861970Y-114125794D02*
X130154863Y-113418687D01*
X130323222Y-113250328D01*
X130457909Y-113182984D01*
X130592596Y-113182984D01*
X130693611Y-113216656D01*
X130861970Y-113317671D01*
X130962986Y-113418687D01*
X131064001Y-113587045D01*
X131097672Y-113688061D01*
X131097672Y-113822747D01*
X131030328Y-113957435D01*
X130861970Y-114125794D01*
X131939466Y-113048297D02*
X131535405Y-113452359D01*
X131737435Y-113250328D02*
X131030328Y-112543222D01*
X131064000Y-112711580D01*
X131064000Y-112846267D01*
X131030328Y-112947282D01*
X146986206Y-113081970D02*
X147693313Y-112374863D01*
X147861672Y-112543222D01*
X147929016Y-112677909D01*
X147929016Y-112812596D01*
X147895344Y-112913611D01*
X147794329Y-113081970D01*
X147693313Y-113182986D01*
X147524955Y-113284001D01*
X147423939Y-113317672D01*
X147289253Y-113317672D01*
X147154565Y-113250328D01*
X146986206Y-113081970D01*
X148299405Y-113115641D02*
X148366748Y-113115641D01*
X148467763Y-113149313D01*
X148636123Y-113317672D01*
X148669794Y-113418688D01*
X148669794Y-113486031D01*
X148636123Y-113587046D01*
X148568779Y-113654390D01*
X148434092Y-113721733D01*
X147625970Y-113721733D01*
X148063703Y-114159466D01*
X141398206Y-113081970D02*
X142105313Y-112374863D01*
X142273672Y-112543222D01*
X142341016Y-112677909D01*
X142341016Y-112812596D01*
X142307344Y-112913611D01*
X142206329Y-113081970D01*
X142105313Y-113182986D01*
X141936955Y-113284001D01*
X141835939Y-113317672D01*
X141701253Y-113317672D01*
X141566565Y-113250328D01*
X141398206Y-113081970D01*
X142745076Y-113014626D02*
X143182810Y-113452359D01*
X142677733Y-113486030D01*
X142778749Y-113587046D01*
X142812421Y-113688061D01*
X142812421Y-113755405D01*
X142778748Y-113856421D01*
X142610390Y-114024779D01*
X142509374Y-114058451D01*
X142442031Y-114058451D01*
X142341016Y-114024779D01*
X142138985Y-113822748D01*
X142105313Y-113721733D01*
X142105313Y-113654390D01*
X125245905Y-104084381D02*
X125245905Y-103084381D01*
X125484000Y-103084381D01*
X125626858Y-103132000D01*
X125722096Y-103227238D01*
X125769715Y-103322476D01*
X125817334Y-103512952D01*
X125817334Y-103655810D01*
X125769715Y-103846286D01*
X125722096Y-103941524D01*
X125626858Y-104036762D01*
X125484000Y-104084381D01*
X125245905Y-104084381D01*
X126674477Y-103417714D02*
X126674477Y-104084381D01*
X126436381Y-103036762D02*
X126198286Y-103751048D01*
X126817334Y-103751048D01*
X135167810Y-104648381D02*
X135167810Y-103648381D01*
X136215429Y-104553143D02*
X136167810Y-104600762D01*
X136024953Y-104648381D01*
X135929715Y-104648381D01*
X135786857Y-104600762D01*
X135691619Y-104505524D01*
X135644000Y-104410286D01*
X135596381Y-104219810D01*
X135596381Y-104076952D01*
X135644000Y-103886476D01*
X135691619Y-103791238D01*
X135786857Y-103696000D01*
X135929715Y-103648381D01*
X136024953Y-103648381D01*
X136167810Y-103696000D01*
X136215429Y-103743619D01*
X137167810Y-104648381D02*
X136596381Y-104648381D01*
X136882095Y-104648381D02*
X136882095Y-103648381D01*
X136786857Y-103791238D01*
X136691619Y-103886476D01*
X136596381Y-103934095D01*
X141565334Y-102052381D02*
X141089143Y-102052381D01*
X141089143Y-101052381D01*
X142422477Y-102052381D02*
X141851048Y-102052381D01*
X142136762Y-102052381D02*
X142136762Y-101052381D01*
X142041524Y-101195238D01*
X141946286Y-101290476D01*
X141851048Y-101338095D01*
X149629905Y-103576381D02*
X149629905Y-102576381D01*
X150010858Y-102576381D01*
X150106096Y-102624000D01*
X150153715Y-102671619D01*
X150201334Y-102766857D01*
X150201334Y-102909714D01*
X150153715Y-103004952D01*
X150106096Y-103052571D01*
X150010858Y-103100190D01*
X149629905Y-103100190D01*
X151153715Y-103576381D02*
X150582286Y-103576381D01*
X150868000Y-103576381D02*
X150868000Y-102576381D01*
X150772762Y-102719238D01*
X150677524Y-102814476D01*
X150582286Y-102862095D01*
X128801905Y-99004381D02*
X128801905Y-98004381D01*
X129182858Y-98004381D01*
X129278096Y-98052000D01*
X129325715Y-98099619D01*
X129373334Y-98194857D01*
X129373334Y-98337714D01*
X129325715Y-98432952D01*
X129278096Y-98480571D01*
X129182858Y-98528190D01*
X128801905Y-98528190D01*
X129754286Y-98099619D02*
X129801905Y-98052000D01*
X129897143Y-98004381D01*
X130135239Y-98004381D01*
X130230477Y-98052000D01*
X130278096Y-98099619D01*
X130325715Y-98194857D01*
X130325715Y-98290095D01*
X130278096Y-98432952D01*
X129706667Y-99004381D01*
X130325715Y-99004381D01*
X128865334Y-111704381D02*
X128532000Y-111228190D01*
X128293905Y-111704381D02*
X128293905Y-110704381D01*
X128674858Y-110704381D01*
X128770096Y-110752000D01*
X128817715Y-110799619D01*
X128865334Y-110894857D01*
X128865334Y-111037714D01*
X128817715Y-111132952D01*
X128770096Y-111180571D01*
X128674858Y-111228190D01*
X128293905Y-111228190D01*
X129817715Y-111704381D02*
X129246286Y-111704381D01*
X129532000Y-111704381D02*
X129532000Y-110704381D01*
X129436762Y-110847238D01*
X129341524Y-110942476D01*
X129246286Y-110990095D01*
X150201334Y-111128381D02*
X149868000Y-110652190D01*
X149629905Y-111128381D02*
X149629905Y-110128381D01*
X150010858Y-110128381D01*
X150106096Y-110176000D01*
X150153715Y-110223619D01*
X150201334Y-110318857D01*
X150201334Y-110461714D01*
X150153715Y-110556952D01*
X150106096Y-110604571D01*
X150010858Y-110652190D01*
X149629905Y-110652190D01*
X150582286Y-110223619D02*
X150629905Y-110176000D01*
X150725143Y-110128381D01*
X150963239Y-110128381D01*
X151058477Y-110176000D01*
X151106096Y-110223619D01*
X151153715Y-110318857D01*
X151153715Y-110414095D01*
X151106096Y-110556952D01*
X150534667Y-111128381D01*
X151153715Y-111128381D01*
X144613334Y-111128381D02*
X144280000Y-110652190D01*
X144041905Y-111128381D02*
X144041905Y-110128381D01*
X144422858Y-110128381D01*
X144518096Y-110176000D01*
X144565715Y-110223619D01*
X144613334Y-110318857D01*
X144613334Y-110461714D01*
X144565715Y-110556952D01*
X144518096Y-110604571D01*
X144422858Y-110652190D01*
X144041905Y-110652190D01*
X144946667Y-110128381D02*
X145565715Y-110128381D01*
X145232381Y-110509333D01*
X145375239Y-110509333D01*
X145470477Y-110556952D01*
X145518096Y-110604571D01*
X145565715Y-110699810D01*
X145565715Y-110937905D01*
X145518096Y-111033143D01*
X145470477Y-111080762D01*
X145375239Y-111128381D01*
X145089524Y-111128381D01*
X144994286Y-111080762D01*
X144946667Y-111033143D01*
X129881334Y-105676381D02*
X129548000Y-105200190D01*
X129309905Y-105676381D02*
X129309905Y-104676381D01*
X129690858Y-104676381D01*
X129786096Y-104724000D01*
X129833715Y-104771619D01*
X129881334Y-104866857D01*
X129881334Y-105009714D01*
X129833715Y-105104952D01*
X129786096Y-105152571D01*
X129690858Y-105200190D01*
X129309905Y-105200190D01*
X130738477Y-105009714D02*
X130738477Y-105676381D01*
X130500381Y-104628762D02*
X130262286Y-105343048D01*
X130881334Y-105343048D01*
X135648381Y-101512666D02*
X135172190Y-101846000D01*
X135648381Y-102084095D02*
X134648381Y-102084095D01*
X134648381Y-101703142D01*
X134696000Y-101607904D01*
X134743619Y-101560285D01*
X134838857Y-101512666D01*
X134981714Y-101512666D01*
X135076952Y-101560285D01*
X135124571Y-101607904D01*
X135172190Y-101703142D01*
X135172190Y-102084095D01*
X134648381Y-100607904D02*
X134648381Y-101084095D01*
X135124571Y-101131714D01*
X135076952Y-101084095D01*
X135029333Y-100988857D01*
X135029333Y-100750761D01*
X135076952Y-100655523D01*
X135124571Y-100607904D01*
X135219810Y-100560285D01*
X135457905Y-100560285D01*
X135553143Y-100607904D01*
X135600762Y-100655523D01*
X135648381Y-100750761D01*
X135648381Y-100988857D01*
X135600762Y-101084095D01*
X135553143Y-101131714D01*
X145629334Y-100528381D02*
X145296000Y-100052190D01*
X145057905Y-100528381D02*
X145057905Y-99528381D01*
X145438858Y-99528381D01*
X145534096Y-99576000D01*
X145581715Y-99623619D01*
X145629334Y-99718857D01*
X145629334Y-99861714D01*
X145581715Y-99956952D01*
X145534096Y-100004571D01*
X145438858Y-100052190D01*
X145057905Y-100052190D01*
X146486477Y-99528381D02*
X146296000Y-99528381D01*
X146200762Y-99576000D01*
X146153143Y-99623619D01*
X146057905Y-99766476D01*
X146010286Y-99956952D01*
X146010286Y-100337905D01*
X146057905Y-100433143D01*
X146105524Y-100480762D01*
X146200762Y-100528381D01*
X146391239Y-100528381D01*
X146486477Y-100480762D01*
X146534096Y-100433143D01*
X146581715Y-100337905D01*
X146581715Y-100099810D01*
X146534096Y-100004571D01*
X146486477Y-99956952D01*
X146391239Y-99909333D01*
X146200762Y-99909333D01*
X146105524Y-99956952D01*
X146057905Y-100004571D01*
X146010286Y-100099810D01*
M02*
