G04 #@! TF.FileFunction,Soldermask,Top*
%FSLAX46Y46*%
G04 Gerber Fmt 4.6, Leading zero omitted, Abs format (unit mm)*
G04 Created by KiCad (PCBNEW 4.0.1-stable) date Tuesday, March 29, 2016 'AMt' 12:48:36 AM*
%MOMM*%
G01*
G04 APERTURE LIST*
%ADD10C,0.100000*%
%ADD11R,2.000200X3.399740*%
%ADD12R,1.400000X1.650000*%
%ADD13C,2.300000*%
%ADD14R,1.598880X1.598880*%
%ADD15R,1.950000X1.000000*%
%ADD16R,1.650000X1.400000*%
%ADD17R,2.127200X2.127200*%
%ADD18O,2.127200X2.127200*%
%ADD19R,2.127200X2.432000*%
%ADD20O,2.127200X2.432000*%
%ADD21R,1.100000X1.700000*%
%ADD22R,1.700000X1.100000*%
G04 APERTURE END LIST*
D10*
D11*
X136144000Y-118531640D03*
X136144000Y-114132360D03*
D12*
X139176000Y-101092000D03*
X137176000Y-101092000D03*
X124984000Y-108712000D03*
X126984000Y-108712000D03*
D10*
G36*
X130185701Y-117891355D02*
X128559355Y-119517701D01*
X126862299Y-117820645D01*
X128488645Y-116194299D01*
X130185701Y-117891355D01*
X130185701Y-117891355D01*
G37*
D13*
X130320051Y-116059949D03*
D10*
G36*
X148300645Y-117993701D02*
X146674299Y-116367355D01*
X148371355Y-114670299D01*
X149997701Y-116296645D01*
X148300645Y-117993701D01*
X148300645Y-117993701D01*
G37*
D13*
X150132051Y-118128051D03*
D10*
G36*
X141696645Y-117993701D02*
X140070299Y-116367355D01*
X141767355Y-114670299D01*
X143393701Y-116296645D01*
X141696645Y-117993701D01*
X141696645Y-117993701D01*
G37*
D13*
X143528051Y-118128051D03*
D14*
X125188980Y-105410000D03*
X127287020Y-105410000D03*
D15*
X133444000Y-105791000D03*
X133444000Y-107061000D03*
X133444000Y-108331000D03*
X133444000Y-109601000D03*
X138844000Y-109601000D03*
X138844000Y-108331000D03*
X138844000Y-107061000D03*
X138844000Y-105791000D03*
D16*
X141732000Y-99552000D03*
X141732000Y-97552000D03*
D17*
X144780000Y-108204000D03*
D18*
X144780000Y-105664000D03*
X147320000Y-108204000D03*
X147320000Y-105664000D03*
X149860000Y-108204000D03*
X149860000Y-105664000D03*
D19*
X132588000Y-97536000D03*
D20*
X135128000Y-97536000D03*
X137668000Y-97536000D03*
D21*
X125034000Y-111252000D03*
X126934000Y-111252000D03*
X149418000Y-112776000D03*
X151318000Y-112776000D03*
X143830000Y-112776000D03*
X145730000Y-112776000D03*
X130998000Y-103124000D03*
X129098000Y-103124000D03*
D22*
X133096000Y-100396000D03*
X133096000Y-102296000D03*
D21*
X144846000Y-97536000D03*
X146746000Y-97536000D03*
M02*
